<svg xmlns="http://www.w3.org/2000/svg" viewBox="0 0 306.07 86.75"><defs><style>.cls-1{fill:none;stroke:#000;stroke-miterlimit:10;stroke-width:0.75px;}</style></defs><g id="レイヤー_2" data-name="レイヤー 2"><g id="レイヤー_1-2" data-name="レイヤー 1"><path d="M111.32,75.55h-1.86V57.9h3.08l3.86,14.54h.07l3.79-14.54h3.15V75.55h-1.86v-16h0l-4.31,16h-1.52l-4.31-16h0Z"/><path d="M125.87,69.29c0-4.7,2.22-6.62,5-6.62s5,1.92,5,6.62-2.23,6.63-5,6.63S125.87,74,125.87,69.29Zm8.25,0c0-2.13-.52-5.13-3.24-5.13s-3.24,3-3.24,5.13.52,5.13,3.24,5.13S134.12,71.42,134.12,69.29Z"/><path d="M140.07,75.55H138.3V63h1.77v1.29a5.46,5.46,0,0,1,3.45-1.65c1.77,0,3.2,1,3.2,4.24v8.64H145V67.36c0-1.31.23-3.24-1.65-3.24a5.28,5.28,0,0,0-3.23,1.9Z"/><path d="M156.91,57.9h1.77V75.55h-1.77V74.12a4,4,0,0,1-3.2,1.8c-1.7,0-4.58-1.57-4.58-6.38s2.5-6.87,4.65-6.87a4.6,4.6,0,0,1,3.13,1.65Zm0,8.33a3.34,3.34,0,0,0-2.92-2c-2.48,0-3,3.4-3,5.28,0,3.68,1.75,4.88,3,4.88s2.45-1.27,2.95-2.33Z"/><path d="M168.44,75.55,168.26,74a5.37,5.37,0,0,1-3.63,2,3.53,3.53,0,0,1-3.47-3.59c0-3.58,3.77-4.36,6.53-5.1l.57-.16v-.71a2.12,2.12,0,0,0-2.38-2.2,3.74,3.74,0,0,0-3.06,2l-1.25-.93a5.14,5.14,0,0,1,4.31-2.54,3.92,3.92,0,0,1,4.15,3.9v6.21a7.62,7.62,0,0,0,.34,2.77Zm-.88-6.83c-1.68.5-4.74,1.18-4.74,3.43a2,2,0,0,0,1.88,2.09,4.91,4.91,0,0,0,3.56-2V68.52Z"/><path d="M174.62,59.85h-1.77v-2h1.77Zm0,15.7h-1.77V63h1.77Z"/><path d="M177.43,75.55V57.9h4.86c4.51,0,5.69,2.56,5.69,4.54a3.74,3.74,0,0,1-2.92,3.81,4.3,4.3,0,0,1,3.33,4.38c0,2.09-.91,4.92-5.83,4.92Zm3.52-10c2.27,0,5.17,0,5.17-3s-2.74-3-5-3h-1.8v6ZM179.29,74h2.2c4.29,0,5-1.29,5-3.22,0-2.11-1-3.65-4.85-3.65h-2.39Z"/><path d="M197.81,75.55,197.63,74a5.37,5.37,0,0,1-3.63,2,3.53,3.53,0,0,1-3.47-3.59c0-3.58,3.77-4.36,6.53-5.1l.57-.16v-.71a2.12,2.12,0,0,0-2.38-2.2,3.74,3.74,0,0,0-3.06,2l-1.25-.93a5.14,5.14,0,0,1,4.31-2.54,3.92,3.92,0,0,1,4.15,3.9v6.21a7.62,7.62,0,0,0,.34,2.77Zm-.88-6.83c-1.68.5-4.74,1.18-4.74,3.43a2,2,0,0,0,1.88,2.09,4.91,4.91,0,0,0,3.56-2V68.52Z"/><path d="M203.94,75.55h-1.77V63h1.77v1.29a5.46,5.46,0,0,1,3.45-1.65c1.77,0,3.2,1,3.2,4.24v8.64h-1.77V67.36c0-1.31.23-3.24-1.66-3.24a5.28,5.28,0,0,0-3.22,1.9Z"/><path d="M215.13,68.84,219.78,63h2l-3.45,4.29,4,8.23h-1.91l-3.2-6.8-2,2.51v4.29h-1.77V57.9h1.77Z"/><path d="M109.81,12h15.25v14.2H112.13V49.27h-2.32Zm12.91,1.93H112.13v4.19h10.59Zm0,6.08H112.13v4.21h10.59ZM136.5,30.13V43.27H118.05V30.13Zm-2.3,1.95H120.33v9.2H134.2ZM144.78,12V46.26a3.43,3.43,0,0,1-.54,2.26,2.79,2.79,0,0,1-2.13.75h-6.67l-.23-2.35L141,47a2.45,2.45,0,0,0,1.12-.19c.23-.12.35-.56.35-1.31V26.15H129.67V12Zm-2.3,1.93H132v4.19h10.44Zm0,6.08H132v4.21h10.44Z"/><path d="M161.54,45.24a17.86,17.86,0,0,0,5.68.71h22.57l-.63,2.2H167.27q-5.53,0-8.29-1.85a13.17,13.17,0,0,1-4.09-5.21,25.1,25.1,0,0,1-2.7,8.12l-1.76-1.85q3-5,3.11-15.07l2.16.25c0,1.66-.14,3.31-.31,5,1.08,3,2.39,5.18,3.92,6.43v-14h-9V27.85h19.53v2.07h-8.32v5.34h7.61v2.07h-7.61Zm-9.35-33.38H168V25H152.19Zm13.68,2H154.33v3.65h11.54Zm0,5.39H154.33V23h11.54Zm10,19.89,1.58,1.39a21.5,21.5,0,0,1-3,2.43,27.1,27.1,0,0,1-4,2.47l-1.56-1.74A24.17,24.17,0,0,0,175.84,39.16Zm-5.77-27.3h19.24v2.08h-8.74a36.17,36.17,0,0,1-1.14,4h8.45V38.41h-16V17.9h5.28a19.47,19.47,0,0,0,1-4h-8.13Zm15.65,8.08H174.05v4.21h11.67Zm0,6.08H174.05v4.21h11.67Zm0,6.19H174.05v4.23h11.67Zm-4.38,8.24,1.6-1.37a29.76,29.76,0,0,0,6.72,4.71l-1.37,1.66A24.21,24.21,0,0,1,184.54,43C183.11,41.94,182,41.08,181.34,40.45Z"/><path d="M203.49,13.84l2.78.41Q204.07,33.11,195.16,46l-2.43-1.37a58.79,58.79,0,0,0,7.08-14A83.19,83.19,0,0,0,203.49,13.84Zm14-.15a94,94,0,0,1,10.92,30.93l-2.82.66a88.43,88.43,0,0,0-10.49-30.34Zm4.3-1.18,2.09-1.21a38.48,38.48,0,0,1,3.76,7l-2.26,1.33A37.8,37.8,0,0,0,221.82,12.51Zm5-2.39,2.08-1.22a38.79,38.79,0,0,1,3.77,7l-2.24,1.35A37.79,37.79,0,0,0,226.84,10.12Z"/><path d="M237.84,14.81a49.49,49.49,0,0,1,13.08,5.9l-1.47,2.49a41.7,41.7,0,0,0-6-3.32,49.42,49.42,0,0,0-7.06-2.68Zm-.08,31.47-.42-3a30.76,30.76,0,0,0,19.6-7.12A35.58,35.58,0,0,0,267.05,22q.76-1.91,1.68-4.75l2.2,1.74a56.59,56.59,0,0,1-4.05,9.18q-7.22,12.57-20.36,16.65A33.9,33.9,0,0,1,237.76,46.28Z"/><path d="M306.07,14.25Q304.83,27.72,298,36a33.16,33.16,0,0,1-14.34,9.82,55.24,55.24,0,0,1-5.94,1.81l-1.14-2.47q12-2.85,18.49-10t8-18.47H286.69a43,43,0,0,1-4.84,6.41,42.68,42.68,0,0,1-6.5,5.59l-1.64-2a34.39,34.39,0,0,0,11.23-12.39Z"/><polygon class="cls-1" points="61.88 63.88 61.81 86.38 0.38 86.38 0.38 0.38 86.38 0.38 86.38 63.84 61.88 63.88"/><line class="cls-1" x1="61.81" y1="86.38" x2="86.38" y2="63.84"/><line class="cls-1" x1="12.88" y1="16.87" x2="74.52" y2="16.87"/><line class="cls-1" x1="12.88" y1="63.87" x2="52.38" y2="63.87"/><line class="cls-1" x1="12.88" y1="32.12" x2="74.38" y2="32.12"/><line class="cls-1" x1="12.88" y1="48.37" x2="74.52" y2="48.37"/></g></g></svg>